<svg xmlns="http://www.w3.org/2000/svg" viewBox="0 0 512 512" width="512" height="512">
  <!-- Fond plein (zone de sécurité maskable : contenu dans le cercle central) -->
  <rect width="512" height="512" fill="#e11d48"/>
  <g fill="#ffffff">
    <rect x="168" y="212" width="80" height="150" rx="8"/>
    <rect x="264" y="180" width="80" height="182" rx="8"/>
  </g>
  <g fill="#e11d48">
    <rect x="186" y="234" width="18" height="18" rx="3"/>
    <rect x="214" y="234" width="18" height="18" rx="3"/>
    <rect x="186" y="270" width="18" height="18" rx="3"/>
    <rect x="214" y="270" width="18" height="18" rx="3"/>
    <rect x="186" y="306" width="18" height="18" rx="3"/>
    <rect x="214" y="306" width="18" height="18" rx="3"/>
    <rect x="282" y="204" width="18" height="18" rx="3"/>
    <rect x="310" y="204" width="18" height="18" rx="3"/>
    <rect x="282" y="240" width="18" height="18" rx="3"/>
    <rect x="310" y="240" width="18" height="18" rx="3"/>
    <rect x="282" y="276" width="18" height="18" rx="3"/>
    <rect x="310" y="276" width="18" height="18" rx="3"/>
    <rect x="282" y="312" width="18" height="18" rx="3"/>
    <rect x="310" y="312" width="18" height="18" rx="3"/>
  </g>
  <g fill="#fbbf24">
    <path d="M226 156 L312 182 L312 136 Z"/>
    <circle cx="226" cy="169" r="12"/>
  </g>
</svg>
