<svg xmlns="http://www.w3.org/2000/svg" viewBox="0 0 512 512" width="512" height="512">
  <rect width="512" height="512" rx="96" fill="#e11d48"/>
  <g fill="#ffffff">
    <!-- Deux immeubles -->
    <rect x="120" y="176" width="120" height="216" rx="10"/>
    <rect x="272" y="136" width="120" height="256" rx="10"/>
  </g>
  <g fill="#e11d48">
    <rect x="146" y="206" width="28" height="28" rx="4"/>
    <rect x="186" y="206" width="28" height="28" rx="4"/>
    <rect x="146" y="256" width="28" height="28" rx="4"/>
    <rect x="186" y="256" width="28" height="28" rx="4"/>
    <rect x="146" y="306" width="28" height="28" rx="4"/>
    <rect x="186" y="306" width="28" height="28" rx="4"/>
    <rect x="298" y="166" width="28" height="28" rx="4"/>
    <rect x="338" y="166" width="28" height="28" rx="4"/>
    <rect x="298" y="216" width="28" height="28" rx="4"/>
    <rect x="338" y="216" width="28" height="28" rx="4"/>
    <rect x="298" y="266" width="28" height="28" rx="4"/>
    <rect x="338" y="266" width="28" height="28" rx="4"/>
    <rect x="298" y="316" width="28" height="28" rx="4"/>
    <rect x="338" y="316" width="28" height="28" rx="4"/>
  </g>
  <!-- Porte-voix (mobilisation) -->
  <g fill="#fbbf24">
    <path d="M196 96 L300 128 L300 72 Z"/>
    <circle cx="196" cy="112" r="14"/>
  </g>
</svg>
